<svg xmlns="http://www.w3.org/2000/svg" viewBox="-4 -4 108 108" width="256" height="256"><path d="M14 46 L16 8 L45 27 Z" fill="#f0a24a" stroke="#3b2410" stroke-width="3" stroke-linejoin="round" stroke-linecap="round"/><path d="M20 36 L22 18 L36 27 Z" fill="#f4a6a6"/><path d="M86 46 L84 8 L55 27 Z" fill="#f0a24a" stroke="#3b2410" stroke-width="3" stroke-linejoin="round" stroke-linecap="round"/><path d="M80 36 L78 18 L64 27 Z" fill="#f4a6a6"/><ellipse cx="50" cy="58" rx="38" ry="33" fill="#f0a24a" stroke="#3b2410" stroke-width="3" stroke-linejoin="round" stroke-linecap="round"/><path d="M50 27 v10 M39 29 l2 8 M61 29 l-2 8" fill="none" stroke="#c9741f" stroke-width="4" stroke-linecap="round"/><ellipse cx="50" cy="73" rx="17" ry="12" fill="#fff4e0"/><ellipse cx="34" cy="54" rx="7" ry="8.5" fill="#fff" stroke="#3b2410" stroke-width="2" stroke-linejoin="round" stroke-linecap="round"/><circle cx="34" cy="55" r="4.4" fill="#3b2410"/><circle cx="35.54" cy="53.24" r="1.4080000000000001" fill="#fff"/><ellipse cx="66" cy="54" rx="7" ry="8.5" fill="#fff" stroke="#3b2410" stroke-width="2" stroke-linejoin="round" stroke-linecap="round"/><circle cx="66" cy="55" r="4.4" fill="#3b2410"/><circle cx="67.54" cy="53.24" r="1.4080000000000001" fill="#fff"/><path d="M24 46 l18 -8 M76 46 l-18 -8" fill="none" stroke="#3b2410" stroke-width="3.5" stroke-linecap="round"/><path d="M44 64 h12 l-6 6z" fill="#e5707a" stroke="#3b2410" stroke-width="2" stroke-linejoin="round" stroke-linecap="round"/><path d="M50 70 v4 M38 79 q4 -4 6 0 t6 0 t6 0 t6 0" fill="none" stroke="#3b2410" stroke-width="2" stroke-linejoin="round" stroke-linecap="round"/><path d="M10 66 l-12 -3 M10 72 l-12 3 M90 66 l12 -3 M90 72 l12 3" fill="none" stroke="#3b2410" stroke-width="1.8" stroke-linecap="round"/><path d="M86 30 q5 10 0 14 q-5 -4 0 -14z" fill="#8fd3ff" stroke="#3b2410" stroke-width="2" stroke-linejoin="round" stroke-linecap="round"/></svg>