<svg xmlns="http://www.w3.org/2000/svg" viewBox="0 0 120 90" width="256" height="256"><rect x="0" y="0" width="120" height="90" fill="#c99a68" /><path d="M0 0 h120" stroke="#a97a4a" stroke-width="1.5"/><path d="M0 12 h120" stroke="#a97a4a" stroke-width="1.5"/><path d="M0 24 h120" stroke="#a97a4a" stroke-width="1.5"/><path d="M0 36 h120" stroke="#a97a4a" stroke-width="1.5"/><path d="M0 48 h120" stroke="#a97a4a" stroke-width="1.5"/><path d="M0 60 h120" stroke="#a97a4a" stroke-width="1.5"/><path d="M0 72 h120" stroke="#a97a4a" stroke-width="1.5"/><path d="M0 84 h120" stroke="#a97a4a" stroke-width="1.5"/><rect x="8" y="6" width="76" height="62" fill="#7aa6d9" stroke="#3b2410" stroke-width="2" stroke-linejoin="round" stroke-linecap="round"/><rect x="8" y="6" width="76" height="14" fill="#5a3a22" stroke="#3b2410" stroke-width="2" stroke-linejoin="round" stroke-linecap="round"/><rect x="14" y="22" width="26" height="16" rx="6" fill="#fff" stroke="#3b2410" stroke-width="2" stroke-linejoin="round" stroke-linecap="round"/><rect x="46" y="22" width="26" height="16" rx="6" fill="#fff" stroke="#3b2410" stroke-width="2" stroke-linejoin="round" stroke-linecap="round"/><path d="M8 44 h76" stroke="#5b86b9" stroke-width="3"/><path d="M20 52 l6 -4 l6 4 l6 -4 l6 4" fill="none" stroke="#fff" stroke-width="2"/><ellipse cx="102" cy="74" rx="16" ry="9" fill="#d96b6b" stroke="#3b2410" stroke-width="2" stroke-linejoin="round" stroke-linecap="round"/><rect x="96" y="8" width="18" height="22" rx="3" fill="#b9d8ee" stroke="#3b2410" stroke-width="2" stroke-linejoin="round" stroke-linecap="round"/><path d="M105 8 v22 M96 19 h18" stroke="#3b2410" stroke-width="2" stroke-linejoin="round" stroke-linecap="round"/></svg>