<svg xmlns="http://www.w3.org/2000/svg" viewBox="0 0 120 90" width="256" height="256"><rect x="0" y="0" width="120" height="90" fill="#a8d481" /><path d="M0 0 v90" stroke="#86b862" stroke-width="1.8"/><path d="M15 0 v90" stroke="#86b862" stroke-width="1.8"/><path d="M30 0 v90" stroke="#86b862" stroke-width="1.8"/><path d="M45 0 v90" stroke="#86b862" stroke-width="1.8"/><path d="M60 0 v90" stroke="#86b862" stroke-width="1.8"/><path d="M75 0 v90" stroke="#86b862" stroke-width="1.8"/><path d="M90 0 v90" stroke="#86b862" stroke-width="1.8"/><path d="M105 0 v90" stroke="#86b862" stroke-width="1.8"/><rect x="0" y="0" width="120" height="8" fill="#c9a066" stroke="#3b2410" stroke-width="2" stroke-linejoin="round" stroke-linecap="round"/><rect x="6" y="0" width="4" height="18" fill="#d9b47c" stroke="#3b2410" stroke-width="1.5"/><rect x="22" y="0" width="4" height="18" fill="#d9b47c" stroke="#3b2410" stroke-width="1.5"/><rect x="38" y="0" width="4" height="18" fill="#d9b47c" stroke="#3b2410" stroke-width="1.5"/><rect x="54" y="0" width="4" height="18" fill="#d9b47c" stroke="#3b2410" stroke-width="1.5"/><rect x="70" y="0" width="4" height="18" fill="#d9b47c" stroke="#3b2410" stroke-width="1.5"/><rect x="86" y="0" width="4" height="18" fill="#d9b47c" stroke="#3b2410" stroke-width="1.5"/><rect x="102" y="0" width="4" height="18" fill="#d9b47c" stroke="#3b2410" stroke-width="1.5"/><rect x="118" y="0" width="4" height="18" fill="#d9b47c" stroke="#3b2410" stroke-width="1.5"/><path d="M12.1 62 h19.8 l-3.3000000000000003 15.400000000000002 h-13.200000000000001z" fill="#b8643a" stroke="#3b2410" stroke-width="2" stroke-linejoin="round" stroke-linecap="round"/><circle cx="22" cy="54.3" r="11" fill="#3f9a4a" stroke="#3b2410" stroke-width="2" stroke-linejoin="round" stroke-linecap="round"/><circle cx="17.6" cy="51" r="3.3000000000000003" fill="#ff8fa3"/><circle cx="27.5" cy="56.5" r="3.3000000000000003" fill="#ffd93b"/><path d="M89 36 h18 l-3 14 h-12z" fill="#b8643a" stroke="#3b2410" stroke-width="2" stroke-linejoin="round" stroke-linecap="round"/><circle cx="98" cy="29" r="10" fill="#3f9a4a" stroke="#3b2410" stroke-width="2" stroke-linejoin="round" stroke-linecap="round"/><circle cx="94" cy="26" r="3" fill="#ff8fa3"/><circle cx="103" cy="31" r="3" fill="#ffd93b"/><path d="M84.8 74 h14.4 l-2.4000000000000004 11.200000000000001 h-9.600000000000001z" fill="#b8643a" stroke="#3b2410" stroke-width="2" stroke-linejoin="round" stroke-linecap="round"/><circle cx="92" cy="68.4" r="8" fill="#3f9a4a" stroke="#3b2410" stroke-width="2" stroke-linejoin="round" stroke-linecap="round"/><circle cx="88.8" cy="66" r="2.4000000000000004" fill="#ff8fa3"/><circle cx="96" cy="70" r="2.4000000000000004" fill="#ffd93b"/><circle cx="60" cy="52" r="12" fill="#e8d09a" stroke="#3b2410" stroke-width="2" stroke-linejoin="round" stroke-linecap="round"/><circle cx="60" cy="52" r="6" fill="#d6b878"/></svg>